<?xml version="1.0" standalone="no"?>
<!DOCTYPE svg PUBLIC "-//W3C//DTD SVG 20010904//EN"
 "http://www.w3.org/TR/2001/REC-SVG-20010904/DTD/svg10.dtd">
<svg version="1.0" xmlns="http://www.w3.org/2000/svg"
 width="1024.000000pt" height="1024.000000pt" viewBox="0 0 1024.000000 1024.000000"
 preserveAspectRatio="xMidYMid meet">
<metadata>
Created by potrace 1.16, written by Peter Selinger 2001-2019
</metadata>
<g transform="translate(0.000000,1024.000000) scale(0.100000,-0.100000)"
fill="#000000" stroke="none">
<path d="M3724 6903 c1 -2 45 -14 97 -27 141 -37 231 -71 369 -142 325 -167
547 -416 649 -732 42 -129 55 -237 48 -404 -12 -302 -122 -565 -368 -885 -44
-56 -79 -104 -79 -108 0 -23 233 -343 346 -475 252 -296 584 -510 924 -595
180 -45 357 -61 536 -50 l117 7 -129 43 c-173 57 -268 96 -397 162 -338 173
-623 430 -872 784 -42 61 -80 119 -82 130 -4 14 10 37 44 77 380 438 508 941
354 1386 -75 216 -262 449 -466 582 -207 135 -417 207 -680 233 -95 10 -418
20 -411 14z"/>
</g>
</svg>
